<?xml version="1.0" encoding="UTF-8"?>
<svg id="Layer_1" data-name="Layer 1" xmlns="http://www.w3.org/2000/svg" viewBox="0 0 1920 1080">
  <defs>
    <style>
      .cls-1 {
        fill: #fff;
      }
    </style>
  </defs>
  <rect x=".12" y="-.48" width="1919.75" height="1080.95"/>
  <g>
    <path class="cls-1" d="M1088.51,496.86c-23.1-22.92-47-46.63-47.85-47.36-21.15-16.46-49.07-17.62-71.38-2.99-.73.49-1.52.98-2.32,1.52-.06-.18-.18-.31-.3-.43,12.07-12.07,36.27-36.27,36.27-36.27-11.89-11.83-27.43-17.74-42.91-17.74s-31.21,5.97-43.03,17.86c-23.04,23.16-46.87,47.18-47.73,48.34-14.57,19.81-16.76,41.02-6.83,63.45,1.52,3.41,3.66,6.58,5.49,9.81-.18.12-.12.12-.3.24l-36.15-36.21-.06.06c-23.71,23.71-23.71,62.17,0,85.88,0,0,48.52,47.79,51.63,49.92,20.18,13.9,46.33,14.2,66.93.91,1.1-.67,2.13-1.34,3.17-1.95.12.12.18.24.31.37-12.07,12.07-36.21,36.27-36.21,36.27l.06.06c23.71,23.71,62.11,23.65,85.82,0l47.61-48.28c16.4-21.21,17.37-49.43,2.44-71.68-.37-.55-.73-1.16-1.16-1.71.12-.12.24-.24.37-.3,12.01,12.01,36.21,36.21,36.21,36.21l.06-.06c23.71-23.71,23.65-62.23-.12-85.95ZM993.3,533.62c4.39,1.83,8.47,4.75,11.7,8.72,8.59,10.24,9.02,25.91,1.04,36.82-1.16,1.58-2.56,3.05-4.02,4.45-11.15,11.22-22.31,22.43-33.52,33.59-.67.67-1.4,1.28-2.07,1.89,11.89-17.13,13.29-35.05,9.94-49.49-3.05,1.71-6.34,2.93-9.87,3.6-1.89,4.39-4.82,8.47-8.78,11.76-10.3,8.53-25.78,9.02-36.82.98-1.28-.91-2.44-2.01-3.6-3.11l-34.26-34.26c-.61-.61-1.22-1.34-1.77-2.19,14.63,9.94,30.54,13.59,47.85,10.24.43-.06.85-.18,1.28-.31-1.65-2.99-2.86-6.34-3.6-9.81-6.58-2.68-11.76-7.56-15.3-14.69-5.3-10.67-4.08-21.15,2.56-30.96.85-1.28,1.95-2.44,3.11-3.54,11.52-11.58,23.1-23.16,34.62-34.74.61-.55,1.28-1.1,2.01-1.58-2.8,4.33-5.36,8.72-7.25,13.47-1.95,4.94-3.23,10-3.9,15.18-.61,5.36-.61,10.67.18,16.03.24,1.58.49,3.17.85,4.69,3.05-1.65,6.4-2.93,9.94-3.6,2.13-5.06,5.61-9.57,10.3-12.8,10.91-7.56,24.75-7.56,35.35.06,1.46,1.1,2.87,2.44,4.21,3.72l33.83,33.83c.61.67,1.22,1.4,1.77,2.26-11.09-7.74-23.35-11.83-36.88-11.64-4.33.06-8.47.55-12.5,1.46,1.71,3.05,2.93,6.46,3.6,10Z"/>
    <path class="cls-1" d="M981.72,539.96c0,11.95-9.69,21.64-21.64,21.64s-21.7-9.69-21.7-21.64,9.69-21.64,21.7-21.64,21.64,9.69,21.64,21.64Z"/>
  </g>
</svg>