<?xml version="1.0" encoding="UTF-8"?>
<svg id="Layer_1" data-name="Layer 1" xmlns="http://www.w3.org/2000/svg" xmlns:xlink="http://www.w3.org/1999/xlink" viewBox="0 0 1920 1080">
  <defs>
    <style>
      .cls-1 {
        fill: url(#linear-gradient-2);
      }

      .cls-2 {
        fill: #fff;
      }

      .cls-3 {
        fill: url(#linear-gradient-3);
      }

      .cls-4 {
        fill: url(#linear-gradient);
      }
    </style>
    <linearGradient id="linear-gradient" x1="733.26" y1="592.96" x2="733.26" y2="490.97" gradientUnits="userSpaceOnUse">
      <stop offset=".21" stop-color="#c6ac6f"/>
      <stop offset="1" stop-color="#f6efc5"/>
    </linearGradient>
    <linearGradient id="linear-gradient-2" x1="1082.19" y1="592.96" x2="1082.19" y2="490.97" xlink:href="#linear-gradient"/>
    <linearGradient id="linear-gradient-3" x1="1196.64" y1="592.96" x2="1196.64" y2="490.97" xlink:href="#linear-gradient"/>
  </defs>
  <rect width="1919.75" height="1080.95"/>
  <g>
    <g>
      <path class="cls-4" d="M783.39,523.17c-9.01-8.94-18.33-18.19-18.66-18.47-8.25-6.42-19.14-6.87-27.84-1.17-.29.19-.59.38-.9.59-.02-.07-.07-.12-.12-.17,4.71-4.71,14.15-14.15,14.15-14.15-4.64-4.61-10.7-6.92-16.74-6.92s-12.17,2.33-16.79,6.97c-8.99,9.03-18.28,18.4-18.62,18.85-5.68,7.73-6.54,16-2.66,24.75.59,1.33,1.43,2.57,2.14,3.83-.07.05-.05.05-.12.1l-14.1-14.12-.02.02c-9.25,9.25-9.25,24.25,0,33.5,0,0,18.93,18.64,20.14,19.47,7.87,5.42,18.07,5.54,26.11.36.43-.26.83-.52,1.24-.76.05.05.07.1.12.14-4.71,4.71-14.12,14.15-14.12,14.15l.02.02c9.25,9.25,24.23,9.23,33.48,0l18.57-18.83c6.4-8.27,6.78-19.28.95-27.96-.14-.21-.29-.45-.45-.67.05-.05.1-.1.14-.12,4.68,4.68,14.12,14.12,14.12,14.12l.02-.02c9.25-9.25,9.23-24.28-.05-33.52ZM746.25,537.51c1.71.71,3.3,1.85,4.57,3.4,3.35,3.99,3.52,10.1.4,14.36-.45.62-1,1.19-1.57,1.74-4.35,4.37-8.7,8.75-13.08,13.1-.26.26-.55.5-.81.74,4.64-6.68,5.18-13.67,3.88-19.31-1.19.67-2.47,1.14-3.85,1.4-.74,1.71-1.88,3.3-3.42,4.59-4.02,3.33-10.06,3.52-14.36.38-.5-.36-.95-.78-1.4-1.21l-13.36-13.36c-.24-.24-.48-.52-.69-.86,5.71,3.88,11.91,5.3,18.66,3.99.17-.02.33-.07.5-.12-.64-1.17-1.12-2.47-1.4-3.83-2.57-1.05-4.59-2.95-5.97-5.73-2.07-4.16-1.59-8.25,1-12.08.33-.5.76-.95,1.21-1.38,4.49-4.52,9.01-9.03,13.5-13.55.24-.21.5-.43.78-.62-1.09,1.69-2.09,3.4-2.83,5.25-.76,1.93-1.26,3.9-1.52,5.92-.24,2.09-.24,4.16.07,6.25.1.62.19,1.24.33,1.83,1.19-.64,2.5-1.14,3.88-1.4.83-1.97,2.19-3.73,4.02-4.99,4.26-2.95,9.65-2.95,13.79.02.57.43,1.12.95,1.64,1.45l13.2,13.2c.24.26.48.55.69.88-4.33-3.02-9.11-4.61-14.38-4.54-1.69.02-3.3.21-4.87.57.67,1.19,1.14,2.52,1.4,3.9Z"/>
      <path class="cls-2" d="M741.73,539.98c0,4.66-3.78,8.44-8.44,8.44s-8.46-3.78-8.46-8.44,3.78-8.44,8.46-8.44,8.44,3.78,8.44,8.44Z"/>
    </g>
    <g>
      <path class="cls-2" d="M882.65,585.56h-72.74v-92.41h70.76c4.93,0,9.11,1.74,12.54,5.22,3.43,3.48,5.15,7.63,5.15,12.47v12.28c0,6.95-3.26,12.23-9.77,15.84,7.83,3.43,11.75,8.98,11.75,16.63v12.28c0,4.84-1.72,9-5.15,12.47-3.43,3.48-7.62,5.22-12.54,5.22ZM869.85,529.06c1.14,0,2.09-.39,2.84-1.19s1.12-1.72,1.12-2.77v-7.39c0-1.06-.37-1.98-1.12-2.77s-1.69-1.19-2.84-1.19h-35.38v15.31h35.38ZM871.83,564.96c1.06,0,1.98-.4,2.77-1.19.79-.79,1.19-1.72,1.19-2.77v-7.39c0-1.05-.39-1.98-1.19-2.77s-1.72-1.19-2.77-1.19h-37.36v15.31h37.36Z"/>
      <path class="cls-2" d="M1015.06,585.56h-24.56l-49.24-57.43v57.43h-24.55v-92.41h24.55l49.24,57.43v-57.43h24.56v92.41Z"/>
      <path class="cls-1" d="M1130.83,585.56h-24.56v-35.91h-48.18v35.91h-24.55v-92.41h24.55v35.91h48.18v-35.91h24.56v92.41Z"/>
      <path class="cls-3" d="M1174,585.56h-24.55v-92.41h76.7c4.84,0,9,1.74,12.48,5.22s5.22,7.63,5.22,12.47v24.03c0,4.93-1.74,9.13-5.22,12.61s-7.64,5.21-12.48,5.21h-52.14v32.87ZM1215.32,531.96c1.06,0,1.98-.37,2.77-1.12.79-.75,1.19-1.69,1.19-2.84v-10.3c0-1.06-.39-1.98-1.19-2.77-.79-.79-1.72-1.19-2.77-1.19h-41.32v18.22h41.32Z"/>
    </g>
  </g>
</svg>